<svg id="Layer_1" enable-background="new 0 0 66 66" height="512" viewBox="0 0 66 66" width="512" xmlns="http://www.w3.org/2000/svg"><g><path d="m26.45 6.44c.16-.11-.44-1.26-1.35-2.58-.9-1.31-1.77-2.29-1.93-2.18s.44 1.26 1.35 2.58 1.77 2.29 1.93 2.18z"/><path d="m41.04 8.37c1.42-.75 2.5-1.49 2.41-1.67-.09-.17-1.32.3-2.74 1.04-1.42.75-2.5 1.49-2.41 1.67.09.17 1.32-.29 2.74-1.04z"/><path d="m33.68 5.33c.43-1.79.46-3.3.27-3.32-.2-.03-.54 1.41-.96 3.16s-.76 3.18-.58 3.25c.19.06.84-1.3 1.27-3.09z"/><path d="m33.07 48.62c-.05-1.43-.18-2.47-.33-2.47-.16 0-.29 1.04-.33 2.47-1.83.02-3.25.17-3.25.35s1.42.33 3.24.35v.44c0 1.99.16 3.61.35 3.61.2 0 .35-1.61.35-3.61 0-.15 0-.29 0-.44 1.87-.01 3.35-.17 3.35-.35-.02-.19-1.5-.34-3.38-.35z"/><path d="m10.48 22.08c0-.19-1.25-.35-2.78-.35-.12 0-.23 0-.35 0-.05-1.26-.18-2.17-.33-2.17-.16 0-.29.92-.33 2.19-1.03.05-1.77.18-1.77.33s.73.28 1.75.33v.31c0 1.74.16 3.16.35 3.16s.35-1.41.35-3.16c0-.1 0-.19 0-.29h.33c1.54 0 2.78-.15 2.78-.35z"/><path d="m54.9 25.25c1.07-1.57 1.55-3.05 1.38-3.12-.18-.08-.93 1.21-1.96 2.73-1.02 1.52-1.95 2.7-1.8 2.84.13.13 1.32-.87 2.38-2.45z"/><path d="m54.06 28.82c-.02.2.79.43 1.69.86.91.42 1.6.9 1.74.76.14-.13-.41-.91-1.44-1.4s-1.98-.4-1.99-.22z"/><path d="m48.58 33.28c-.19.07.17 1.41.02 3.05-.13 1.65-.71 2.91-.53 3.01.15.11 1.09-1.11 1.24-2.95.16-1.83-.57-3.19-.73-3.11z"/><path d="m19.87 13.67c-.58.26-1.31.81-1.85 1.62-.54.82-.77 1.7-.78 2.33-.02.64.12 1.01.21 1 .2-.01.18-1.51 1.16-2.95.95-1.47 2.34-2.02 2.27-2.21-.03-.07-.43-.05-1.01.21z"/><path d="m61.03 58.48c-.1-.16-.18-.35-.33-.46l-.21-.2c-.07-.05-.17-.09-.23-.12-.26-.13-.5-.19-.72-.23-.45-.1-.86-.1-1.25-.11-.78 0-1.49.08-2.12.16-1.36.21-2.54.49-3.59.8-.13-.72-.59-2.14-1.75-5.06-.97-2.47-3.06-7.18-3.97-8.69.77-.25 1.52-.58 2.2-1.01 1.25-.78 2.31-1.91 2.88-3.22.6-1.3.75-2.67.72-3.92-.04-1.26-.3-2.41-.61-3.45-2.58-7.26-5.11-12.41-7.11-16.29-.27-.5-.46-.9-.77-1.43-.34-.5-.77-.9-1.25-1.17-.94-.54-1.97-.65-2.84-.47-1.55.39-2.68.71-3.65.97-3.81 1.06-3.92 1.27-3.87 1.46s.25.32 4.12-.49c.96-.21 2.14-.47 3.61-.79.62-.11 1.36 0 1.99.39.32.19.6.47.81.79.19.33.45.87.68 1.33 1.31 2.65 2.92 5.97 4.6 10.07-.6-.05-2.1.04-3.87.02-2.27-.01-4.93-.29-6.61-.56-3.07-.48-4.59-.94-5.41-1.04-.3-.05-.49-.06-.63-.04-.37-1.9-.72-3.64-1.12-5.1-.11-.43-.24-.87-.32-1.23s-.06-.72 0-1.05c.14-.65.5-1.15.85-1.48.73-.65 1.32-.75 1.29-.82 0-.02-.15-.01-.41.06s-.64.22-1.06.55c-.29.23-.59.56-.82.99-.05-.82-.08-1.6-.09-2.32-.01-.46 0-.85-.04-1.3-.05-.44-.19-.84-.38-1.17-.39-.67-.93-1.07-1.4-1.3-.48-.22-.88-.3-1.15-.32s-.41 0-.41.03c-.01.07.58.05 1.43.54.41.25.87.65 1.17 1.25.15.3.25.64.27 1.01.01.35-.02.82-.03 1.26-.06 1.53 0 3.32.08 5.26-.14.01-.33.06-.6.16-.78.26-2.17 1.01-5.06 2.08-1.58.59-4.13 1.37-6.34 1.82-1.73.37-3.22.57-3.78.74.2-1.19.4-2.33.59-3.39.54-2.85 1.09-5.29 1.59-7.38.06-.26.13-.52.19-.77s.12-.51.18-.67c.14-.36.35-.68.62-.93.54-.5 1.25-.73 1.87-.73 1.5.03 2.72.05 3.7.07 3.95.04 4.12-.13 4.13-.32s-.14-.38-4.07-.67c-1-.07-2.17-.16-3.75-.24-.88-.02-1.88.26-2.71.98-.41.36-.76.83-.99 1.4-.11.31-.16.55-.23.8s-.13.51-.2.77c-1.07 4.22-2.37 9.78-3.21 17.44-.06 1.08-.03 2.26.23 3.49.26 1.22.74 2.51 1.62 3.62.85 1.13 2.11 2 3.48 2.51.78.29 1.59.47 2.42.57-.54 1.67-1.5 6.69-1.88 9.29-.45 3.05-.58 4.53-.54 5.26-1.07-.09-2.27-.13-3.61-.08-.64.04-1.35.09-2.12.25-.39.09-.79.17-1.22.36-.21.08-.44.19-.67.37-.15.1-.28.25-.37.42-.13.15-.16.35-.22.53-.02.42.19.89.47 1.15.23.22.47.38.7.52.47.27.94.45 1.42.63.96.33 1.94.55 2.92.72 1.96.34 3.89.46 5.6.42 1.7-.04 3.18-.25 4.19-.62.5-.18.89-.42 1.09-.66.2-.27.15-.47.12-.46-.05-.01-.09.14-.29.29-.21.15-.57.29-1.06.39-.97.21-2.41.29-4.06.21-1.65-.07-3.53-.3-5.39-.7-.93-.2-1.85-.46-2.71-.78-.42-.17-.83-.35-1.18-.56-.17-.11-.32-.22-.42-.32-.06-.08-.02-.04-.03-.06.01-.01 0-.01.03-.02.08-.06.21-.13.36-.18.29-.12.64-.19.96-.26.67-.13 1.33-.18 1.93-.21 3.01-.12 5.33.22 7.02.52 1.7.32 2.81.67 3.49.96.69.29.93.5 1.03.58.1.09.19.14.29.15.09.01.21.02.23-.31 0-.35-.35-.84-1.09-1.3-.75-.47-1.92-.93-3.69-1.35-.8-.17-1.73-.35-2.79-.47.24-.71.54-2.16.98-5.15.38-2.61.92-7.73.87-9.46.52.04 1.04.06 1.56.04 1.49-.07 3-.4 4.4-1.04 1.39-.64 2.71-1.61 3.56-2.97.4-.67.71-1.46.86-2.18.18-.72.29-1.44.4-2.16.19-1.44.27-2.87.29-4.25.01-2.31-.1-4.5-.23-6.54.58 3.27 1.11 7.37 2.17 11.79.35 1.35.75 2.72 1.27 4.08.27.68.55 1.36.89 2.02.31.67.78 1.37 1.32 1.93 1.12 1.14 2.6 1.83 4.09 2.19 1.5.36 3.04.4 4.53.18.54-.08 1.07-.21 1.6-.36.35 1.7 2.06 6.61 3.04 9.1 1.11 2.82 1.74 4.18 2.14 4.83-.98.32-1.83.66-2.55.98-1.65.75-2.7 1.44-3.34 2.04s-.87 1.16-.79 1.5c.1.32.22.28.3.25.09-.03.18-.1.25-.21.08-.1.26-.35.88-.77.61-.42 1.62-.97 3.21-1.62 1.59-.62 3.79-1.4 6.75-1.86.59-.08 1.24-.16 1.92-.16.33 0 .69.01.99.07.15.02.3.07.39.11.07.02.03.01.05.02 0 .02.02-.01-.02.06-.07.12-.19.26-.33.4-.29.28-.66.53-1.04.78-.77.48-1.62.91-2.49 1.29-1.73.76-3.52 1.34-5.12 1.73s-3.01.59-4 .57c-.49-.01-.87-.08-1.11-.18-.23-.11-.29-.24-.34-.22-.03 0-.03.2.22.42.24.2.67.36 1.19.44 1.06.17 2.54.09 4.22-.19s3.54-.78 5.39-1.49c.92-.36 1.84-.77 2.71-1.28.43-.26.86-.54 1.26-.9.2-.19.4-.39.58-.66.23-.39.32-.9.21-1.3zm-31.18-29.13c-.06 1.36-.17 2.74-.37 4.12-.12.69-.24 1.38-.42 2.05-.16.69-.4 1.25-.75 1.82-.71 1.1-1.85 1.92-3.08 2.46-1.24.55-2.6.83-3.94.87-2.68.11-5.33-.83-6.71-2.7-1.42-1.86-1.64-4.24-1.54-6.19.22-2.21.52-4.27.83-6.19.54.13 2.1.2 3.97.02 2.31-.2 5.02-.87 6.67-1.48 3.02-1.11 4.4-2.04 5.07-2.53.06-.05.1-.09.15-.13.1 2.44.2 5.1.12 7.88zm14.83 14.39c-2.62.41-5.66-.06-7.59-1.91-.46-.48-.83-.98-1.14-1.62-.33-.62-.61-1.27-.88-1.91-.52-1.3-.95-2.62-1.32-3.93-.72-2.71-1.25-5.35-1.72-7.74.05.03.1.05.15.08.76.35 2.31.99 5.5 1.49 1.75.28 4.55.4 6.87.16 1.88-.18 3.41-.56 3.92-.79.73 1.79 1.48 3.71 2.22 5.81.56 1.87.93 4.25-.02 6.39-.89 2.12-3.33 3.57-5.99 3.97z"/></g></svg>